<?xml version="1.0" encoding="UTF-8"?>
<svg xmlns="http://www.w3.org/2000/svg" version="1.1" viewBox="0 0 1080 1080">
  <defs>
    <style>
      .cls-1 {
        fill: #05e8bb;
      }

      .cls-2 {
        fill: #2c4ac6;
      }
    </style>
  </defs>
  <!-- Generator: Adobe Illustrator 28.6.0, SVG Export Plug-In . SVG Version: 1.2.0 Build 709)  -->
  <g>
    <g id="Layer_1">
      <path class="cls-1" d="M884.81,694.7v-377.14c0-62.96-51.52-114.48-114.48-114.48h-457.78c-62.96,0-114.48,51.52-114.48,114.48v457.78c0,62.96,51.52,114.48,114.48,114.48h364.51c6.21,0,12.31-1.66,17.66-4.81h0c13.89-8.17,16.31-27.27,4.89-38.65l-.15-.15c-22.2-22.11-44.31-44.3-66.48-66.44-28.92-28.89-47.72-63.23-55.7-103.4-5.12-25.76-10.45-51.47-15.45-77.25-3.61-18.63,11.93-35.85,30.41-32.43,30.3,5.61,60.61,11.48,90.55,18.73,33.05,7.99,63.36,24.72,87.64,48.53,22.48,22.04,44.74,44.31,66.93,66.64,4.5,4.52,9.5,8.54,15.04,11.7,10.5,5.97,25.35,10.46,30.93-7.11,1.07-3.37,1.46-6.92,1.46-10.46Z"/>
      <path class="cls-2" d="M822.89,756.29c-9.9-10.03-20.07-20.09-29.92-29.82-16.53-16.34-33.63-33.24-49.8-50.39-35.38-37.52-81.94-47.5-118.55-52l-7.48-.92,1.44,7.4c.51,2.61,1.02,5.16,1.53,7.67,1.08,5.33,2.1,10.37,2.92,15.43,5.9,36.49,19.38,64.99,41.19,87.13,24.06,24.41,48.73,49,72.59,72.78l14.71,14.67c8.56,8.54,19.55,13.19,32.65,13.8.82.04,1.63.06,2.45.06,19.84,0,37.66-11.36,45.85-29.45,8.8-19.43,5.04-41.55-9.58-56.36Z"/>
      <g>
        <path class="cls-2" d="M352.37,419.12c-18.48,0-33.46,14.31-33.46,31.97v279.43c0,17.66,14.98,31.97,33.46,31.97s33.46-14.31,33.46-31.97v-279.43c0-17.66-14.98-31.97-33.46-31.97Z"/>
        <path class="cls-2" d="M501.8,265.32c-18.48,0-33.46,14.98-33.46,33.46v218.9c0,18.48,14.98,33.46,33.46,33.46s33.46-14.98,33.46-33.46v-218.9c0-18.48-14.98-33.46-33.46-33.46Z"/>
        <path class="cls-2" d="M651.22,420.79c18.48,0,33.46-14.98,33.46-33.46v-227.37c0-18.48-14.98-33.46-33.46-33.46s-33.46,14.98-33.46,33.46v227.37c0,18.48,14.98,33.46,33.46,33.46Z"/>
      </g>
    </g>
  </g>
</svg>